<?xml version="1.0" encoding="UTF-8" standalone="no"?>
<!DOCTYPE svg PUBLIC "-//W3C//DTD SVG 1.1//EN" "http://www.w3.org/Graphics/SVG/1.1/DTD/svg11.dtd">
<svg width="960px" height="640px" version="1.1" xmlns="http://www.w3.org/2000/svg" xmlns:xlink="http://www.w3.org/1999/xlink" xml:space="preserve" xmlns:serif="http://www.serif.com/" style="fill-rule:evenodd;clip-rule:evenodd;stroke-linejoin:round;stroke-miterlimit:2;">
    <g>
        <path d="M39.212,64.654L34.225,65.776L33.152,68.593L33.878,69.83L32.792,71.373L33.556,72.855L34.705,74.403L33.033,76.999L31.638,82.924L30.66,92.038L31.783,96.501L34.771,97.61L37.263,96.361L38.907,89.868L38.374,84.86L37.656,83.445L37.249,76.827L36.746,74.241L39.388,68.565L39.212,64.654Z"/>
        <path d="M50.666,83.594L52.197,83.462L52.923,85.98L52.866,88.872L54.18,91.762L56.12,97.347L53.665,98.402L51.756,100.62L47.825,99.946L47.261,94.392L48.853,89.376L48.853,87.647L49.327,85.825L50.666,83.594Z"/>
        <path d="M50.436,67.54L52.868,68.685L52.692,70.305L52.037,70.712L51.797,72.701L50.442,73.663L49.137,72.976L49.109,70.701L50.436,67.54Z"/>
        <path d="M59.631,65.927L64.052,62.15L65.647,64.314L66.392,66.786L64.888,68.544L63.904,69.809L60.894,69.669L59.631,65.927Z"/>
        <path d="M65.442,69.426L66.006,70.85L65.473,74.653L66.059,76.076L67.203,80.265L66.773,81.687L67.454,82.439L68.066,89.213L67.299,93.145L61.964,94.89L59.486,93.339L59.412,90.329L59.923,86.87L61.895,79.088L62.193,75.561L62.834,74.114L62.834,71.963L65.442,69.426Z"/>
        <path d="M17.791,33.029L14.047,31.597L11.921,31.676L6.283,36.367L2.526,44.032L4.078,47.122L6.793,49.634L10.595,49.042L13.128,45.594L13.974,41.846L15.611,38.36L15.862,36.099L17.871,34.185L17.791,33.029Z"/>
        <path d="M42.357,4.749L46.646,9.972L49.851,13.279L52.025,14.522L49.675,16.789L48.912,19.897L46.642,24.912L43.655,27.306L42.2,31.371L40.82,34.178L31.041,35.651L26.873,32.436L27.089,29.927L21.79,27.472L19.746,23.835L20.335,20.613L24.244,14.143L27.484,10.976L34.38,6.804L34.914,5.548L38.881,4.327L42.357,4.749Z"/>
        <path d="M57.69,4.637L61,3.007L64.646,3.873L67.59,7.106L70.649,12.829L70.357,16.556L70.783,18.515L72.394,22.278L74.974,33.143L75.269,40.62L72.738,47.02L68.307,48.732L66.686,50.525L65.211,51.969L62.397,52.215L58.981,54.887L58.275,53.712L56.302,57.082L47.356,57.714L46.451,56.309L42.783,59.204L37.153,58.26L34.288,52.026L35.156,45.391L35.689,43.629L43.712,39.726L49.679,40.825L52.091,40.857L57.728,39.599L59.553,38.072L60.638,34.697L62.726,32.286L62.563,31.102L61.851,28.137L63.405,27.319L61.563,26.934L59.767,26.432L57.848,22.418L57.442,18.861L57.47,15.651L56.715,12.708L57.075,9.077L57.69,4.637Z"/>
        <path d="M76.002,66.152L75.184,62.889L75.208,59.402L76.852,58.749L78.281,56.704L78.571,59.131L79.492,58.468L80.613,59.585L79.952,61.242L81.073,61.427L81.073,62.782L82.139,63.927L82.139,66.689L83.24,66.587L84.519,72.92L84.117,75.695L82.088,78.17L80.273,78.335L75.886,75.457L75.992,72.766L75.416,70.632L75.392,68.331L76.002,66.152Z"/>
    </g>
</svg>
